{
  "accessors": [
    {
      "bufferView": 2,
      "componentType": 5126,
      "count": 18386,
      "max": [
        35.533748626708984,
        55.1175422668457,
        17.848438262939453
      ],
      "min": [
        -40.315216064453125,
        -57.94099426269531,
        -17.848438262939453
      ],
      "type": "VEC3"
    },
    {
      "bufferView": 2,
      "byteOffset": 220632,
      "componentType": 5126,
      "count": 18386,
      "type": "VEC3"
    },
    {
      "bufferView": 3,
      "componentType": 5126,
      "count": 18386,
      "type": "VEC4"
    },
    {
      "bufferView": 1,
      "componentType": 5126,
      "count": 18386,
      "type": "VEC2"
    },
    {
      "bufferView": 0,
      "componentType": 5125,
      "count": 32088,
      "type": "SCALAR"
    },
    {
      "bufferView": 2,
      "byteOffset": 441264,
      "componentType": 5126,
      "count": 12,
      "max": [
        15.449455261230469,
        37.511878967285156,
        11.880834579467773
      ],
      "min": [
        -15.560104370117188,
        -38.37957000732422,
        11.683982849121094
      ],
      "type": "VEC3"
    },
    {
      "bufferView": 2,
      "byteOffset": 441408,
      "componentType": 5126,
      "count": 12,
      "type": "VEC3"
    },
    {
      "bufferView": 1,
      "byteOffset": 147088,
      "componentType": 5126,
      "count": 12,
      "type": "VEC2"
    },
    {
      "bufferView": 0,
      "byteOffset": 128352,
      "componentType": 5125,
      "count": 24,
      "type": "SCALAR"
    }
  ],
  "asset": {
    "generator": "fab-model-conversion",
    "version": "2.0"
  },
  "bufferViews": [
    {
      "buffer": 0,
      "byteLength": 128448,
      "target": 34963
    },
    {
      "buffer": 0,
      "byteLength": 147184,
      "byteOffset": 128448,
      "byteStride": 8,
      "target": 34962
    },
    {
      "buffer": 0,
      "byteLength": 441552,
      "byteOffset": 275632,
      "byteStride": 12,
      "target": 34962
    },
    {
      "buffer": 0,
      "byteLength": 294176,
      "byteOffset": 717184,
      "byteStride": 16,
      "target": 34962
    }
  ],
  "buffers": [
    {
      "byteLength": 1011360,
      "uri": "scene.bin"
    }
  ],
  "images": [
    {
      "uri": "textures/Vetri_baseColor.jpeg"
    },
    {
      "uri": "textures/Vetri_metallicRoughness.png"
    },
    {
      "uri": "textures/Vetri_normal.jpeg"
    },
    {
      "uri": "textures/Vetro_metallicRoughness.jpeg"
    }
  ],
  "materials": [
    {
      "doubleSided": true,
      "name": "Vetri",
      "normalTexture": {
        "index": 2
      },
      "occlusionTexture": {
        "index": 1
      },
      "pbrMetallicRoughness": {
        "baseColorTexture": {
          "index": 0
        },
        "metallicRoughnessTexture": {
          "index": 1
        }
      }
    },
    {
      "alphaMode": "BLEND",
      "doubleSided": true,
      "name": "Vetro",
      "pbrMetallicRoughness": {
        "baseColorFactor": [
          0.10741758421266502,
          0.22138935270278684,
          0.35260612693710275,
          0.1
        ],
        "metallicRoughnessTexture": {
          "index": 3
        }
      }
    }
  ],
  "meshes": [
    {
      "name": "Object_0",
      "primitives": [
        {
          "attributes": {
            "NORMAL": 1,
            "POSITION": 0,
            "TANGENT": 2,
            "TEXCOORD_0": 3
          },
          "indices": 4,
          "material": 0,
          "mode": 4
        }
      ]
    },
    {
      "name": "Object_1",
      "primitives": [
        {
          "attributes": {
            "NORMAL": 6,
            "POSITION": 5,
            "TEXCOORD_0": 7
          },
          "indices": 8,
          "material": 1,
          "mode": 4
        }
      ]
    }
  ],
  "nodes": [
    {
      "children": [
        1
      ],
      "matrix": [
        1.0,
        0.0,
        0.0,
        0.0,
        0.0,
        2.220446049250313e-16,
        -1.0,
        0.0,
        0.0,
        1.0,
        2.220446049250313e-16,
        0.0,
        0.0,
        0.0,
        0.0,
        1.0
      ],
      "name": "Sketchfab_model"
    },
    {
      "children": [
        2,
        3
      ],
      "name": "Dining Table Glass.obj.cleaner.materialmerger.gles"
    },
    {
      "mesh": 0,
      "name": "Object_2"
    },
    {
      "mesh": 1,
      "name": "Object_3"
    }
  ],
  "samplers": [
    {
      "magFilter": 9729,
      "minFilter": 9987,
      "wrapS": 10497,
      "wrapT": 10497
    }
  ],
  "scene": 0,
  "scenes": [
    {
      "name": "Sketchfab_Scene",
      "nodes": [
        0
      ]
    }
  ],
  "textures": [
    {
      "sampler": 0,
      "source": 0
    },
    {
      "sampler": 0,
      "source": 1
    },
    {
      "sampler": 0,
      "source": 2
    },
    {
      "sampler": 0,
      "source": 3
    }
  ]
}
